<svg xmlns="http://www.w3.org/2000/svg" viewBox="0 0 64 64" role="img" aria-labelledby="mark-title">
  <title id="mark-title">Nexlocal connected cube mark</title>
  <path d="M32 4 57 18v28L32 60 7 46V18Z" fill="#18201D" stroke="#F5F6F2" stroke-opacity=".62" stroke-width="1.5"/>
  <path d="m32 4 25 14-25 14L7 18Z" fill="#202824"/>
  <path d="m7 18 25 14v28L7 46Z" fill="#101513"/>
  <path d="m57 18-25 14v28l25-14Z" fill="#161A18"/>
  <path d="m7 18 25 14 25-14M32 32v28" fill="none" stroke="#B9F227" stroke-width="2.6" stroke-linejoin="round"/>
  <path d="m20 25 12-7 12 7v14l-12 7-7-4v-8l7-4" fill="none" stroke="#5D7CFF" stroke-width="2" stroke-linecap="round" stroke-linejoin="round"/>
  <circle cx="32" cy="18" r="2.2" fill="#B9F227"/><circle cx="44" cy="25" r="2.2" fill="#5D7CFF"/><circle cx="25" cy="42" r="2.2" fill="#B9F227"/>
</svg>
