<svg xmlns="http://www.w3.org/2000/svg" viewBox="0 0 224 54" role="img" aria-labelledby="logo-title">
  <title id="logo-title">Nexlocal</title>
  <g transform="translate(1 1) scale(.8125)">
    <path d="M32 4 57 18v28L32 60 7 46V18Z" fill="#18201D" stroke="#F5F6F2" stroke-opacity=".62" stroke-width="1.5"/>
    <path d="m32 4 25 14-25 14L7 18Z" fill="#202824"/><path d="m7 18 25 14v28L7 46Z" fill="#101513"/><path d="m57 18-25 14v28l25-14Z" fill="#161A18"/>
    <path d="m7 18 25 14 25-14M32 32v28" fill="none" stroke="#B9F227" stroke-width="2.6"/>
    <path d="m20 25 12-7 12 7v14l-12 7-7-4v-8l7-4" fill="none" stroke="#5D7CFF" stroke-width="2" stroke-linejoin="round"/>
  </g>
  <text x="62" y="36" fill="#FFFFFF" font-family="Manrope,Segoe UI,sans-serif" font-size="29" font-weight="700" letter-spacing="-.8">Nexlocal</text>
</svg>
